<svg xmlns="http://www.w3.org/2000/svg" xmlns:xlink="http://www.w3.org/1999/xlink" version="1.1" x="0px" y="0px" viewBox="0 0 100 125" style="enable-background:new 0 0 100 100;" xml:space="preserve"><g><path d="M48,37.3c-0.3,0.1-0.6,0.1-0.8,0.3c-0.3,0.3-1.3,0.3-0.4,1.1c0.2,0.2-0.1,0.4-0.2,0.6c-0.3,0.3-0.6,0.6-0.8,0.9   c-0.2,0.2-0.3,0.5-0.6,0.5c-1,0-2,0.1-3.1,0c-0.3,0-0.8,0.2-0.8-0.2c0-0.4,0.1-0.8,0.5-1.1c0.9-0.5,1.5-1.2,1.6-2.3   c0-0.2,0.2-0.4,0.3-0.6c0.1-0.4,1.1-0.8-0.1-1.1c-0.1,0,0-0.2,0-0.3c0.3-1,0.1-1.3-0.8-1.8c-0.5-0.3-0.7-0.1-0.8,0.3   c-0.3,0.7-0.5,1.4-0.8,2c-0.6,1.2-0.9,2.6-2.3,3.3c-0.3,0.1-0.7,0.4-0.5,0.9c0.1,0.3-0.2,0.2-0.3,0.1c-0.2-0.1-0.4-0.1-0.8-0.3   c1-0.1,1-0.5,0.6-1c-0.5-0.5-0.4-1.1-0.2-1.7c0.1-0.5,0.2-1-0.2-1.4c-0.2-0.2-0.1-0.4,0-0.6c0.4-0.6,0.8-0.4,1.3-0.2   c0.8,0.4,1.1,0.6,1.8-0.5c0.3-0.5,0.5-1.1,1-1.5c0.3-0.2,0.3-0.5,0.2-0.7c-0.6-0.9,0.3-1.7-0.1-2.6c0,0,0-0.2,0.1-0.2   c1-0.2,0.4-0.8,0.3-1.2c-0.1-0.4-0.3-0.7-0.6-1c-1-1.1-2.8-1.3-4.5-1.1c-1,0.1-1.5,0.4-1.8,1.1c-0.2,0.4-0.3,1.1-0.4,1.9   c0,0.2,0,0.4,0,0.6c-0.1,1-0.9,1.8-1.9,1.8c-0.3,0-0.7,0-0.9,0.2c-0.9,0.9-2,1.5-3,2.2c-0.5,0.3-0.9,0.6-1.3,1   c-1.9,1.7-3.5,3.6-5.8,5c-0.7,0.4-0.7,1.1-0.3,1.8c0.4,0.6,0.1,1.8-0.5,2.1c-2.5,1.1-3.5,3.3-4.1,5.7c-0.1,0.3-0.1,0.5,0.3,0.6   c0.6,0.1,0.6,0.5,0.6,1c0,2,0,4,0,6.1c0.3,0.1,0.5-0.5,0.9-0.3c-0.4,1.2-2.2,1.8-1,3.4c-1.6,0.4-2.7,1.4-3.8,2.5   c-1.6,1.8-2.8,3.9-4.1,5.9c-0.1,0.2-0.2,0.4-0.1,0.7c0.3,0.6,0.1,1.2-0.3,1.7c-0.2,0.3-0.4,0.5-0.5,0.8c-0.2,0.5,0.1,1.3-0.4,1.6   C7.9,73.6,5,74,5,74.1c0.3,0,0.7,0,1,0c4.1,0,8.1,0,12.3,0c0.2,0,0.6,0.1,0.6-0.3c0-0.4-0.1-0.7-0.5-0.8c-0.1,0-0.2-0.1-0.3-0.1   c-1-0.4-1.9-0.8-2.9-1.3c1.6-1.8,3.1-3.6,4.7-5.4c2-2.2,3.9-4.5,4.6-7.6c0.1-0.5,0.2-0.9-0.3-1.3c-1.4-1.3-2.4-2.8-3.3-4.5   c-0.1-0.1-0.3-0.3-0.1-0.5c0.8,0.7,1.6,1.3,2.6,2.1c0,0-0.1,0-0.1,0c0.3,0.1,0.5,0.3,0.7,0.4c0.1,0.1,0.2,0.1,0.3,0.2   c0.1,0.1,0.2,0.2,0.1,0.4c-0.1-0.1-0.2-0.1-0.2-0.2c-0.1-0.1-0.2-0.2-0.3-0.2c-0.2-0.1-0.5-0.2-0.5-0.6c-0.5,0-0.7-0.4-1.1-0.3   c0.5,0.6,1.1,1.1,1.5,1.7c1.4,1.6,3.2,2.8,4,4.9c0.3,0.6,0.6,1.2,0.9,1.9c0.6,1.1,1.1,2.2,1.6,3.4c0.5,1.1,1.4,1.7,2.3,2.4   c-0.4,0.2-0.7-0.1-1.1,0c0.4,1.2,0.9,2.3,1.4,3.4c0.3,0.6,0.6,0.9,1.3,0.8c0.4-0.1,0.6,0,0.7,0.5c0,0.5-0.4,0.4-0.6,0.4   c-1.3,0.2-4,0.7-4,0.7s8.8,0,13.4,0c0.4,0,0.7,0,0.8-0.5c0.1-0.6-0.2-0.6-0.6-0.7c-1.4-0.3-2.6-0.9-3.8-1.6   c-0.5-0.3-0.7-0.7-0.9-1.2c-0.3-1.5-0.7-3.1-1.1-4.6c-0.3-1.2-0.7-2.2-1.8-2.9c-0.1-0.1-0.4-0.1-0.3-0.2c0.1-0.1,0.4-0.1,0.5,0.1   c0.1-1.3-0.1-2.6-0.7-3.8c-0.8-1.7-1.8-3.3-2.7-5c-0.4-0.8-1.4-1.6,0.2-2.3c-1-0.3-1.7-0.8-2.3-1.4c-0.3-0.3-0.5-0.6-0.7-0.9   c0.4-0.4,0.9,0.5,1.2-0.3c0.2-0.6,0.2-1.2-0.8-1.3c1.2-0.5,2.2-0.9,3.3-1.8c-0.8-0.2-1.4,0.1-2-0.2c1-0.4,0.6-1,0.3-1.6   c0.2,0,0.2,0,0.3,0c0.1,0.1,0.3,0.3,0.4,0.4c0.9,1.2,2.1,1.8,3.6,1.7c1.3-0.1,2.6,0,3.8,0.3c1.3,0.3,1.3,0.3,1.8-1   c0.2-0.5,0.2-1.3,0.6-1.6c0.9-0.6,1.8-1.3,2.9-1.6c0.5-0.1,0.8-0.3,1-0.7c0.3-0.6,0.7-0.9,1.3-1.1c0.2-0.1,0.6-0.1,0.5-0.5   c0-0.4-0.5-0.1-0.6-0.4c0.1-0.4,0.4-0.5,0.7-0.6c0.5-0.3,0.4-0.9,0.3-1.3C49,37.2,48.5,37.1,48,37.3z M39,30.6   c0.2-0.8,1.2-0.8,1.4-1.6c0-0.1,0.5,0,0.6,0.2c0.1,0.3,0.2,0.6-0.2,0.8c-0.6,0.2-0.8,0.5-0.2,1c0.3,0.3,0.4,0.6,0.1,1.1   c-0.3,0.4-0.1,1.1-0.6,1.5c-0.2,0.1,0,0.5-0.3,0.4c-0.2,0-0.4-0.2-0.4-0.5c0-0.2,0-0.3-0.1-0.6c0.8-0.7,0-1.1-0.4-1.6   C38.8,31.1,39,30.8,39,30.6z M35.1,30.7c0.2-0.1,0.4,0.3,0.5,0.5c0.6,0.6,0.7,1.4,0.8,2.3c-0.5-0.5-1-1-1.5-1.5   c-0.2-0.1-0.6-0.2-0.5-0.3C34.5,31.3,34.8,30.9,35.1,30.7z M16,63.2c1.1,0.3,2.2,0.2,3.4,0c-0.9,1.1-2.1,1.8-3.4,2.5   c1.2,0.1,2.1-0.3,3.3-0.3c-1.5,1-2.8,1.8-4.2,2.5C15,68,14.8,68,14.7,68.1c-1,0.4-1.5,1.1-1.2,1.8c0.4,0.9,1.2,0.5,1.8,0.4   c-0.7,1.1-1.1,1.3-2,0.8c-1.1-0.3-1.9-1.1-2.8-1.7c-0.3-0.2-0.1-0.3,0-0.5c1.1-2,2.4-4,4-5.7c0.6-0.8,1.3-1.3,2.3-1.4   c1-0.2,2-0.5,3-0.6c-0.5,0.7-1.2,1.1-2.1,1.2c-0.5,0.1-1,0.1-1.6,0.2c-0.2,0-0.5,0.1-0.5,0.3C15.6,63.1,15.8,63.1,16,63.2z    M24.8,50.3c-2.1-0.2-4.1-0.6-6.2-0.8c-0.4,0-0.5-0.2-0.4-0.6c0.4-1.9,1.4-3.4,2.8-4.6c0.3-0.2,0.6-0.2,0.9-0.1   c1.5,0,2.9,0.4,4.3,1.3c-1.6,0.2-2.7,1.1-3.7,2c-0.4,0.3-0.3,0.5,0.1,0.8c0.8,0.4,1.6,0.8,2.5,1.1c0.8-0.1,0.8-0.1,1.5-1.1   C26.8,49.8,26.2,50.5,24.8,50.3z M27.2,43.5c-1.4-0.3-2.8-0.7-3.9-1.7c-0.2-0.2-0.4-0.5-0.6-0.7c-0.1-0.1-0.1-0.3,0-0.5   c0.1-0.2,0.3-0.1,0.5-0.1c0.5,0.3,0.6,0,0.5-0.4c-0.1-0.4,0.1-0.7,0.4-1c0.8-1,1.7-1.9,2.7-2.7c0.6-0.6,1.3-1.1,2-1.6   c0.2-0.1,0.4-0.3,0.7-0.4c0.2,0.4-0.1,0.7-0.2,1c-0.2,0.8-0.1,1.7-0.1,2.7c-0.2-0.1-0.3-0.3-0.4-0.4c-0.1-0.2-0.1-0.5-0.3-0.7   c-2.1,1.8-2,4.6,0.1,6.2c0,0,0.1,0,0.1,0.1c0.2,0.1,0.5,0.2,0,0.5c0,0,0,0,0,0C28.2,43.9,27.7,43.6,27.2,43.5z M37,64.2   c0.7,0.6,0.7,1.8,0.8,2.7c0.2,1,0.2,2,0.4,3c0.1,0.6-0.1,1-0.7,1c-0.4,0-0.8,0.5-1.2,0.1c0.4-1.7,0.1-2.4-1.2-3.5   c-0.9-0.7-1.7-1.5-2.5-2.4c0.7,0.1,1.2,0.5,1.7,0.7c0.4,0.1,0.8,0.3,1,0c0.3-0.4,0.1-0.8-0.1-1.2c-0.2-0.3-0.5-0.5-0.7-0.8   c-0.4-0.4-1-0.5-1.4-1.2C34.5,62.9,35.9,63.3,37,64.2z M35.5,60.5c-1.4-0.8-2.5-1.5-3.7-2.2c-0.4-0.5-1.2-0.4-1.6-1   c0.5-0.3,1,0.1,1.4,0.1c0.3,0,0.7,0.3,0.9-0.1c0.1-0.3-0.3-0.5-0.5-0.7c-1-0.8-2.1-1.5-3.2-2.2c0.5-0.2,0.9,0.1,1.2,0.2   c0.3,0.1,0.7,0.3,1-0.1c0.2-0.4-0.2-0.6-0.4-0.9c-0.7-0.8-1.6-1.4-2.5-2c0.4-0.2,0.8,0.3,1.1-0.1c0-0.3,0-0.6,0.1-1.1   C31.4,53.8,34.4,56.4,35.5,60.5z M30.7,35.5c-0.3,0.6-0.3,0.6-0.4,1.7c-0.5-0.7-0.6-1.3-0.3-2c0.2-0.5,0.4-0.7,0.8-0.1   c0.3,0.5,0.6,1,0.7,1.5c0.3,1.9,0.6,3.8,1.2,5.7C31.3,40.3,31.7,37.7,30.7,35.5z M39.5,44.6c0,0.2-0.1,0.1-0.2,0.1   c-0.6,0.1-1.4,0.5-1.8,0.1c-0.4-0.4,0.1-1.1,0.2-1.7c0-0.2,0-0.5,0-0.7c-0.3,0.3-0.5,0.5-0.8,0.8c-0.4,0.4-0.7,0.3-0.8-0.2   c-0.1-0.7-0.6-0.7-1.1-0.6c-1.1,0.2-1.5-0.2-1.1-1.3c0.2-0.6,0.6-1.2,0.9-1.8c-0.2,0-0.3,0-0.4-0.1c-0.5,0-1.2,0-1.4-0.4   c-0.2-0.4,0.4-0.7,0.7-1.1c0.3-0.4,0.4-0.9,0.2-1.4c-0.4-1-0.9-1.9-1.9-2.5c-0.2-0.1-0.4-0.1-0.3-0.4c2.9-1,5.4,1,5.1,4   c-0.4-0.2-0.6-0.9-0.8-1c-0.2-0.1-0.3-0.1-0.4,0.1c0.3,0,0.5,0.7,0.6,0.9c0.7,1.5,0.5,1.9-0.9,2.8c-0.1,0.1-0.5,0.5-0.6,0.9   c0.6-0.1,1-0.5,1.4-0.8c0.6-0.3,0.9-0.1,0.9,0.5c0,0.4,0,0.9,0,1.3c0.3-0.2,0.3-0.5,0.5-0.8c0.2-0.2,0.3-0.6,0.4-0.6   c1.1,0,1.1-1.1,1.8-1.7c0.6,1.3,1.1,2.5,1.3,3.9C41.2,44.1,40.7,44.5,39.5,44.6z M41.9,42.8c-0.3-0.5-0.8-1-0.6-1.4   c0.2-0.6,0.7-0.1,1.2-0.2C42.3,41.8,42.1,42.2,41.9,42.8z M48,39.6c-0.1,0-0.2,0-0.2-0.1c0-0.1,0.1-0.1,0.1-0.1   c0.1,0,0.1,0,0.2,0.1C48,39.6,48,39.6,48,39.6z"/><path d="M91.6,73.3c-0.5-0.3-0.2-1.1-0.4-1.6c-0.1-0.3-0.3-0.6-0.5-0.8c-0.4-0.5-0.6-1.1-0.3-1.7c0.1-0.2,0-0.5-0.1-0.7   c-1.4-2-2.5-4.1-4.1-5.9c-1-1.1-2.2-2.1-3.8-2.5c1.2-1.6-0.6-2.3-1-3.4c0.4-0.2,0.6,0.4,0.9,0.3c0-2,0-4.1,0-6.1   c0-0.5-0.1-0.9,0.6-1c0.4-0.1,0.3-0.3,0.3-0.6c-0.6-2.4-1.6-4.6-4.1-5.7c-0.6-0.3-0.9-1.5-0.5-2.1c0.4-0.7,0.4-1.4-0.3-1.8   c-2.2-1.3-3.8-3.3-5.8-5c-0.4-0.4-0.9-0.7-1.3-1c-1.1-0.7-2.2-1.3-3-2.2c-0.2-0.2-0.6-0.2-0.9-0.2c-1,0-1.8-0.8-1.9-1.8   c0-0.2,0-0.4,0-0.6c-0.1-0.8-0.2-1.4-0.4-1.9c-0.3-0.8-0.8-1-1.8-1.1c-1.7-0.2-3.5,0-4.5,1.1c-0.2,0.3-0.4,0.6-0.6,1   c-0.1,0.4-0.7,1,0.3,1.2c0,0,0.1,0.2,0.1,0.2c-0.4,0.8,0.5,1.7-0.1,2.6c-0.1,0.2-0.1,0.5,0.2,0.7c0.6,0.3,0.7,1,1,1.5   c0.7,1.1,0.9,0.9,1.8,0.5c0.5-0.3,0.9-0.4,1.3,0.2c0.2,0.2,0.2,0.4,0,0.6c-0.5,0.4-0.4,0.9-0.2,1.4c0.2,0.6,0.3,1.2-0.2,1.7   c-0.4,0.5-0.4,0.9,0.6,1c-0.4,0.2-0.6,0.3-0.8,0.3c-0.1,0-0.4,0.1-0.3-0.1c0.2-0.6-0.3-0.8-0.5-0.9c-1.5-0.6-1.8-2-2.3-3.3   c-0.3-0.7-0.5-1.4-0.8-2c-0.1-0.4-0.3-0.6-0.8-0.3c-0.9,0.5-1.1,0.8-0.8,1.8c0,0.1,0.1,0.3,0,0.3c-1.1,0.3-0.2,0.7-0.1,1.1   c0.1,0.2,0.3,0.4,0.3,0.6c0.1,1.1,0.7,1.8,1.6,2.3c0.4,0.2,0.5,0.7,0.5,1.1c0,0.4-0.5,0.2-0.8,0.2c-1,0-2,0-3.1,0   c-0.4,0-0.5-0.3-0.6-0.5c-0.3-0.3-0.6-0.6-0.8-0.9c-0.2-0.2-0.4-0.4-0.2-0.6c0.9-0.8-0.2-0.8-0.4-1.1c-0.2-0.2-0.5-0.2-0.8-0.3   c-0.5-0.2-1-0.1-1.1,0.2c-0.1,0.3-0.2,0.9,0.3,1.3c0.2,0.2,0.6,0.3,0.7,0.6c-0.1,0.3-0.6,0-0.6,0.4c0,0.4,0.3,0.4,0.5,0.5   c0.6,0.2,1,0.6,1.3,1.1c0.2,0.4,0.5,0.6,1,0.7c1.1,0.3,2,1,2.9,1.6c0.5,0.3,0.4,1,0.6,1.6c0.5,1.3,0.5,1.3,1.8,1   c1.3-0.3,2.5-0.4,3.8-0.3c1.5,0.1,2.7-0.4,3.6-1.7c0.1-0.2,0.3-0.3,0.4-0.4c0,0,0.1,0,0.3,0c-0.3,0.6-0.8,1.2,0.3,1.6   c-0.6,0.3-1.3,0.1-2,0.2c1,0.9,2.1,1.3,3.3,1.8c-1,0.1-1,0.7-0.8,1.3c0.2,0.7,0.8-0.2,1.2,0.3c-0.2,0.3-0.4,0.6-0.7,0.9   c-0.6,0.6-1.3,1.1-2.3,1.4c1.6,0.7,0.7,1.5,0.2,2.3c-0.9,1.7-1.9,3.3-2.7,5c-0.6,1.2-0.7,2.5-0.7,3.8c0.2-0.2,0.4-0.2,0.5-0.1   c0.1,0.1-0.1,0.2-0.3,0.2c-1.1,0.7-1.5,1.7-1.8,2.9c-0.3,1.5-0.7,3.1-1.1,4.6c-0.1,0.5-0.3,0.9-0.9,1.2c-1.2,0.6-2.4,1.3-3.8,1.6   c-0.4,0.1-0.7,0.2-0.6,0.7c0.1,0.5,0.4,0.5,0.8,0.5c4.6,0,13.4,0,13.4,0s-2.6-0.5-4-0.7c-0.3,0-0.7,0.1-0.6-0.4   c0-0.4,0.3-0.5,0.7-0.5c0.6,0.1,1-0.2,1.3-0.8c0.5-1.1,1-2.2,1.4-3.4c-0.4-0.1-0.7,0.2-1.1,0c0.9-0.7,1.8-1.4,2.3-2.4   c0.5-1.1,1.1-2.3,1.6-3.4c0.3-0.6,0.7-1.2,0.9-1.9c0.8-2.1,2.7-3.3,4-4.9c0.5-0.6,1-1.1,1.5-1.7c-0.4-0.1-0.6,0.3-1.1,0.3   c-0.1,0.4-0.3,0.5-0.5,0.6c-0.1,0.1-0.2,0.2-0.3,0.2c-0.1,0.1-0.2,0.1-0.2,0.2c-0.1-0.1,0-0.3,0.1-0.4c0.1-0.1,0.2-0.1,0.3-0.2   c0.2-0.2,0.4-0.4,0.7-0.4c0,0-0.1,0-0.1,0c1-0.8,1.8-1.4,2.6-2.1c0.3,0.3,0,0.4-0.1,0.5c-0.9,1.6-2,3.2-3.3,4.5   c-0.4,0.4-0.4,0.7-0.3,1.3c0.7,3.1,2.6,5.4,4.6,7.6c1.6,1.8,3.1,3.6,4.7,5.4c-1,0.5-1.9,1-2.9,1.3c-0.1,0-0.2,0.1-0.3,0.1   c-0.5,0.1-0.6,0.4-0.5,0.8c0,0.4,0.5,0.3,0.6,0.3c4.1,0,8.1,0,12.3,0c0.3,0,0.7,0,1,0C95,74,92.1,73.6,91.6,73.3z M61,31.3   c-0.4,0.5-1.2,0.9-0.4,1.6c0,0.3-0.1,0.5-0.1,0.6c0,0.3-0.2,0.5-0.4,0.5c-0.3,0.1-0.1-0.3-0.3-0.4c-0.5-0.4-0.3-1.1-0.6-1.5   c-0.3-0.4-0.3-0.8,0.1-1.1c0.6-0.5,0.4-0.8-0.2-1c-0.5-0.2-0.3-0.5-0.2-0.8c0.1-0.2,0.6-0.3,0.6-0.2c0.2,0.7,1.2,0.8,1.4,1.6   C61,30.8,61.2,31.1,61,31.3z M52,39.6c0,0,0-0.1-0.1-0.1c0.1,0,0.1-0.1,0.2-0.1c0,0,0.1,0.1,0.1,0.1C52.2,39.6,52.1,39.6,52,39.6z    M58.1,42.8c-0.2-0.6-0.4-1.1-0.6-1.6c0.5,0.1,1.1-0.4,1.2,0.2C58.9,41.9,58.5,42.3,58.1,42.8z M64.4,31.2c0.1-0.2,0.3-0.6,0.5-0.5   c0.3,0.2,0.6,0.6,0.8,0.9c0.1,0.2-0.3,0.3-0.5,0.3c-0.5,0.5-1.1,1-1.5,1.5C63.7,32.6,63.9,31.8,64.4,31.2z M67.1,38.9   c-0.2,0.4-0.9,0.4-1.4,0.4c-0.1,0-0.2,0-0.4,0.1c0.3,0.6,0.6,1.2,0.9,1.8c0.4,1.1,0,1.4-1.1,1.3c-0.5-0.1-1-0.1-1.1,0.6   c-0.1,0.5-0.4,0.6-0.8,0.2c-0.3-0.3-0.5-0.5-0.8-0.8c0,0.2,0,0.5,0,0.7c0,0.6,0.6,1.3,0.2,1.7c-0.4,0.4-1.2-0.1-1.8-0.1   c-0.1,0-0.2,0-0.2-0.1c-1.3-0.1-1.7-0.4-1.5-1.5c0.2-1.3,0.7-2.6,1.3-3.9c0.6,0.6,0.6,1.7,1.8,1.7c0.1,0,0.3,0.4,0.4,0.6   c0.2,0.2,0.2,0.6,0.5,0.8c0-0.5,0-0.9,0-1.3c0-0.7,0.3-0.8,0.9-0.5c0.5,0.3,0.9,0.7,1.4,0.8c0-0.4-0.5-0.8-0.6-0.9   c-1.5-0.9-1.6-1.3-0.9-2.8c0.1-0.2,0.2-0.9,0.6-0.9c-0.1-0.2-0.2-0.2-0.4-0.1c-0.2,0.1-0.4,0.8-0.8,1c-0.3-3,2.2-5,5.1-4   c0.1,0.3-0.2,0.3-0.3,0.4c-1,0.6-1.5,1.5-1.9,2.5c-0.2,0.5-0.1,0.9,0.2,1.4C66.7,38.2,67.4,38.4,67.1,38.9z M69.3,35.5   c-1.1,2.2-0.6,4.8-2.1,6.9c0.6-1.9,1-3.8,1.2-5.7c0.1-0.5,0.4-1,0.7-1.5c0.4-0.6,0.6-0.4,0.8,0.1c0.3,0.7,0.2,1.3-0.3,2   C69.7,36.1,69.7,36.1,69.3,35.5z M65,67.4c-1.4,1.1-1.7,1.9-1.2,3.5c-0.4,0.4-0.8-0.1-1.2-0.1c-0.6,0-0.8-0.4-0.7-1   c0.2-1,0.2-2,0.4-3c0.2-0.9,0.1-2.1,0.8-2.7c1.1-0.9,2.4-1.3,3.9-1.6c-0.4,0.6-1,0.7-1.4,1.2c-0.2,0.3-0.5,0.5-0.7,0.8   c-0.3,0.4-0.4,0.8-0.1,1.2c0.3,0.3,0.7,0.1,1,0c0.5-0.2,1-0.6,1.7-0.7C66.7,65.9,65.8,66.7,65,67.4z M69.5,53.6   c-0.2,0.2-0.6,0.5-0.4,0.9c0.2,0.4,0.6,0.2,1,0.1c0.4-0.1,0.8-0.3,1.2-0.2c-1.1,0.7-2.2,1.4-3.2,2.2c-0.2,0.2-0.7,0.4-0.5,0.7   c0.2,0.4,0.6,0.1,0.9,0.1c0.5,0,0.9-0.4,1.4-0.1c-0.4,0.6-1.2,0.5-1.6,1c-1.2,0.7-2.3,1.4-3.7,2.2c1.1-4,4.1-6.6,6.2-10   c0,0.5,0,0.8,0.1,1.1c0.4,0.4,0.8-0.2,1.1,0.1C71,52.3,70.2,52.9,69.5,53.6z M71.3,43.7C71.3,43.7,71.3,43.7,71.3,43.7   c-0.5-0.3-0.2-0.4,0-0.5c0.1,0,0.1,0,0.1-0.1c2.1-1.6,2.2-4.4,0.1-6.2c-0.2,0.2-0.2,0.4-0.3,0.7c-0.1,0.2-0.2,0.3-0.4,0.4   c-0.1-1,0.1-1.8-0.1-2.7c0-0.3-0.4-0.6-0.2-1c0.2,0.1,0.4,0.3,0.7,0.4c0.7,0.5,1.4,1,2,1.6c1,0.8,1.9,1.8,2.7,2.7   c0.3,0.3,0.4,0.6,0.4,1c-0.1,0.4,0,0.7,0.5,0.4c0.2-0.1,0.4-0.1,0.5,0.1c0.1,0.2,0.1,0.4,0,0.5c-0.2,0.2-0.4,0.5-0.6,0.7   c-1.1,1-2.5,1.4-3.9,1.7C72.3,43.6,71.8,43.9,71.3,43.7z M75.2,50.3c-1.4,0.2-1.9-0.6-1.7-2c0.7,1,0.7,1,1.5,1.1   c0.8-0.3,1.7-0.7,2.5-1.1c0.4-0.2,0.5-0.4,0.1-0.8c-1-1-2.1-1.8-3.7-2c1.4-0.9,2.8-1.4,4.3-1.3c0.3,0,0.6-0.1,0.9,0.1   c1.4,1.2,2.5,2.7,2.8,4.6c0.1,0.4,0,0.5-0.4,0.6C79.3,49.8,77.2,50.1,75.2,50.3z M89.5,69.3c-0.9,0.6-1.7,1.4-2.8,1.7   c-0.9,0.4-1.3,0.3-2-0.8c0.7,0.1,1.4,0.5,1.8-0.4c0.3-0.6-0.2-1.4-1.2-1.8C85.2,68,85,68,84.8,67.9c-1.4-0.6-2.7-1.5-4.2-2.5   c1.2,0,2.2,0.4,3.3,0.3c-1.3-0.8-2.5-1.4-3.4-2.5c1.2,0.1,2.3,0.3,3.4,0c0.2-0.1,0.4-0.1,0.4-0.4c0-0.3-0.3-0.3-0.5-0.3   c-0.5-0.1-1-0.1-1.6-0.2c-0.9-0.1-1.6-0.5-2.1-1.2c1,0.1,2,0.5,3,0.6c1,0.2,1.7,0.6,2.3,1.4c1.6,1.7,2.9,3.6,4,5.7   C89.6,69,89.8,69.2,89.5,69.3z"/></g></svg>